<svg xmlns="http://www.w3.org/2000/svg" xmlns:svg="http://www.w3.org/2000/svg" id="svg2" width="33.001" height="33.001" x="0" y="0" enable-background="new 0 0 33.001 33.001" version="1.1" viewBox="0 0 33.001 33.001" xml:space="preserve"><metadata id="metadata288"/><path style="fill:#383838;fill-opacity:1;display:none" id="path11" d="m 33.001,28.001 c 0,2.761 -2.239,5 -5,5 H 5 c -2.761,0 -5,-2.239 -5,-5 V 5 C 0,2.239 2.239,0 5,0 h 23.001 c 2.761,0 5,2.239 5,5 v 23.001 z"/><g id="g62" style="fill:#fff;fill-opacity:1"><title id="title3302">Pen</title><polygon id="polygon64" points="6.79 22.328 5.503 27.472 10.657 26.187" style="fill:#fff;fill-opacity:1"/><path id="path66" d="m 27.097,7.858 -1.934,-1.93 c -0.534,-0.533 -1.399,-0.533 -1.933,0 l -2.9,2.894 -0.966,0.965 -11.6,11.577 3.867,3.859 11.6,-11.577 0.966,-0.965 2.9,-2.894 c 0.534,-0.533 0.534,-1.397 0,-1.929 z" style="fill:#fff;fill-opacity:1"/></g><g id="g68"><polygon style="fill:none;stroke:#000;stroke-width:.5;stroke-miterlimit:10" id="polygon70" stroke-miterlimit="10" points="46.827 22.328 45.54 27.472 50.694 26.187"/><path style="fill:none;stroke:#000;stroke-width:.5;stroke-miterlimit:10" id="path72" stroke-miterlimit="10" d="M 67.134,7.858 65.2,5.928 c -0.534,-0.533 -1.399,-0.533 -1.933,0 l -2.9,2.894 -0.966,0.965 -11.6,11.577 3.867,3.859 11.6,-11.577 0.966,-0.965 2.9,-2.894 c 0.534,-0.533 0.534,-1.397 0,-1.929 z"/></g></svg>